<svg id="svg" version="1.1" xmlns="http://www.w3.org/2000/svg" xmlns:xlink="http://www.w3.org/1999/xlink" width="400" height="254.80540111199363" viewBox="0, 0, 400,254.80540111199363"><g id="svgg"><path id="path0" d="M31.250 0.174 C 23.243 0.779,14.043 5.686,8.365 12.380 C 7.053 13.928,4.172 18.158,3.846 19.017 C 3.727 19.329,3.413 20.045,3.146 20.608 C 1.984 23.069,0.954 26.230,0.383 29.083 C -0.083 31.416,-0.084 223.240,0.382 225.583 C 0.953 228.454,1.967 231.557,3.157 234.079 C 3.417 234.631,3.730 235.346,3.852 235.667 C 4.180 236.529,7.031 240.713,8.352 242.271 C 11.447 245.920,16.504 249.788,20.250 251.371 C 24.413 253.130,26.491 253.779,29.725 254.330 C 32.848 254.862,367.152 254.862,370.275 254.330 C 374.067 253.684,379.123 251.945,381.750 250.382 C 391.432 244.624,397.231 236.675,399.538 226.000 L 399.917 224.250 399.917 127.333 L 399.917 30.417 399.538 28.667 C 396.422 14.246,386.024 3.770,371.628 0.546 L 369.583 0.088 201.250 0.068 C 108.667 0.057,32.167 0.105,31.250 0.174 M360.000 11.675 C 366.092 12.647,368.657 20.220,364.443 24.792 C 363.654 25.648,362.897 26.100,357.667 28.834 C 352.769 31.395,350.039 32.828,337.667 39.331 C 335.971 40.222,332.971 41.798,331.000 42.833 C 329.029 43.868,326.029 45.445,324.333 46.336 C 322.637 47.227,319.715 48.760,317.838 49.743 C 315.961 50.726,313.674 51.926,312.755 52.411 C 309.972 53.877,301.381 58.389,299.250 59.503 C 297.080 60.638,293.129 62.710,287.500 65.667 C 285.529 66.702,282.529 68.277,280.833 69.167 C 275.365 72.036,270.821 74.423,267.750 76.039 C 266.100 76.907,263.137 78.464,261.167 79.499 C 259.196 80.533,256.158 82.129,254.417 83.046 C 249.465 85.652,245.215 87.884,241.500 89.830 C 239.621 90.815,236.658 92.370,234.917 93.286 C 229.112 96.340,224.628 98.694,219.750 101.247 C 217.092 102.638,212.306 105.149,209.115 106.828 C 202.481 110.317,202.399 110.352,200.521 110.462 C 198.051 110.607,198.271 110.695,189.083 105.877 C 181.254 101.771,178.649 100.404,177.250 99.666 C 176.425 99.231,174.175 98.051,172.250 97.043 C 170.325 96.036,167.325 94.462,165.583 93.546 C 163.842 92.629,160.804 91.034,158.833 90.001 C 155.399 88.201,153.147 87.018,145.708 83.108 C 143.852 82.132,140.833 80.546,139.000 79.583 C 137.167 78.621,134.148 77.035,132.292 76.058 C 128.362 73.991,124.103 71.754,119.417 69.295 C 117.583 68.333,114.546 66.736,112.667 65.748 C 107.572 63.067,103.365 60.863,100.750 59.505 C 99.467 58.838,97.967 58.049,97.417 57.750 C 96.867 57.451,95.629 56.795,94.667 56.292 C 85.900 51.707,81.770 49.544,79.000 48.086 C 74.328 45.626,66.004 41.252,59.375 37.772 C 52.647 34.241,49.177 32.417,46.500 31.004 C 44.987 30.206,42.191 28.735,40.285 27.735 C 36.639 25.822,35.539 25.030,34.700 23.714 C 31.741 19.069,34.516 12.569,39.833 11.690 C 41.180 11.468,358.606 11.453,360.000 11.675 M23.890 33.581 C 25.274 33.874,25.567 34.021,41.833 42.579 C 44.933 44.210,47.581 45.600,55.417 49.710 C 57.342 50.720,60.342 52.295,62.083 53.210 C 69.478 57.097,71.940 58.390,75.250 60.125 C 77.175 61.133,80.250 62.746,82.083 63.709 C 83.917 64.671,87.742 66.678,90.583 68.167 C 93.425 69.657,96.425 71.233,97.250 71.670 C 98.075 72.106,100.362 73.306,102.333 74.337 C 105.722 76.108,107.918 77.260,115.875 81.439 C 117.731 82.414,120.787 84.018,122.667 85.003 C 124.546 85.988,127.433 87.503,129.083 88.371 C 130.733 89.238,133.846 90.869,136.000 91.996 C 138.154 93.122,140.406 94.327,141.003 94.673 C 145.102 97.049,146.612 102.348,144.419 106.660 C 143.708 108.056,144.241 107.524,126.167 124.907 C 122.271 128.654,118.108 132.669,116.917 133.829 C 115.725 134.989,110.625 139.902,105.583 144.747 C 96.270 153.696,93.851 156.027,89.833 159.924 C 88.596 161.124,85.408 164.197,82.750 166.752 C 76.199 173.048,69.357 179.636,66.833 182.077 C 64.222 184.604,55.744 192.770,53.083 195.321 C 51.983 196.376,49.921 198.371,48.500 199.755 C 45.919 202.268,35.780 212.036,30.505 217.092 C 28.355 219.153,27.440 219.911,26.524 220.392 C 21.565 222.998,15.632 220.641,13.697 215.294 L 13.258 214.083 13.131 157.333 C 13.062 126.121,13.022 87.046,13.044 70.500 L 13.083 40.417 13.459 39.421 C 15.086 35.107,19.481 32.646,23.890 33.581 M379.417 33.585 C 382.527 34.241,384.925 36.276,386.129 39.282 L 386.583 40.417 386.625 48.583 C 386.792 81.064,386.375 213.801,386.103 214.750 C 384.530 220.236,378.584 222.959,373.443 220.546 C 371.931 219.837,372.556 220.410,358.575 206.917 C 350.386 199.014,345.828 194.621,332.987 182.258 C 329.373 178.778,323.340 172.966,319.580 169.341 C 315.820 165.716,308.657 158.819,303.663 154.015 C 298.669 149.210,293.533 144.256,292.250 143.006 C 290.967 141.756,286.917 137.854,283.250 134.335 C 279.583 130.815,275.533 126.914,274.250 125.665 C 272.967 124.416,269.930 121.487,267.502 119.155 C 255.331 107.470,255.999 108.153,255.218 106.603 C 253.461 103.115,254.008 99.154,256.640 96.303 C 257.698 95.158,258.244 94.819,263.250 92.205 C 265.358 91.104,268.438 89.490,270.095 88.619 C 273.530 86.812,278.829 84.029,283.333 81.666 C 285.029 80.776,288.029 79.202,290.000 78.167 C 291.971 77.132,295.046 75.519,296.833 74.582 C 298.621 73.646,303.871 70.892,308.500 68.462 C 313.129 66.032,318.529 63.200,320.500 62.167 C 324.011 60.327,327.152 58.679,334.000 55.082 C 335.879 54.095,338.917 52.501,340.750 51.539 C 342.583 50.576,345.471 49.060,347.167 48.169 C 348.863 47.278,351.825 45.723,353.750 44.713 C 355.675 43.704,358.712 42.109,360.500 41.169 C 374.010 34.065,374.404 33.868,375.670 33.594 C 377.084 33.287,377.994 33.285,379.417 33.585 M166.545 108.336 C 168.755 108.656,168.170 108.366,183.250 116.621 C 192.771 121.833,193.014 121.948,195.917 122.620 C 198.507 123.220,201.493 123.220,204.083 122.620 C 206.982 121.949,207.253 121.821,216.667 116.666 C 218.454 115.687,221.342 114.115,223.083 113.172 C 224.825 112.229,227.037 111.021,228.000 110.488 C 232.881 107.782,236.764 107.451,240.652 109.409 C 242.717 110.449,242.703 110.437,259.083 126.661 C 262.292 129.839,277.142 144.503,292.083 159.247 C 307.025 173.991,322.250 189.026,325.917 192.658 C 337.099 203.735,357.365 223.742,361.284 227.573 C 365.126 231.328,365.760 232.090,366.340 233.638 C 367.690 237.248,365.972 241.592,362.553 243.212 L 361.417 243.750 200.000 243.750 L 38.583 243.750 37.447 243.212 C 33.288 241.242,31.892 235.614,34.630 231.852 C 34.971 231.384,45.900 220.491,58.917 207.647 C 71.933 194.803,85.358 181.550,88.750 178.194 C 92.142 174.839,97.918 169.129,101.587 165.505 C 105.255 161.882,111.330 155.878,115.087 152.164 C 118.843 148.450,127.351 140.050,133.993 133.498 C 140.635 126.945,148.414 119.266,151.280 116.434 C 159.266 108.542,161.129 107.553,166.545 108.336 " stroke="none" fill="#6c346c" fill-rule="evenodd"></path><path id="path1" d="M19.936 33.685 C 16.610 34.466,13.730 37.585,13.179 41.002 C 12.887 42.816,13.283 213.359,13.582 214.537 C 15.067 220.392,22.005 223.215,26.989 219.994 C 27.975 219.357,29.824 217.619,41.165 206.672 C 43.685 204.240,46.685 201.348,47.832 200.245 C 53.014 195.263,54.583 193.751,57.079 191.333 C 58.546 189.912,60.646 187.887,61.746 186.833 C 65.053 183.662,67.433 181.370,70.417 178.483 C 71.975 176.975,74.300 174.734,75.583 173.502 C 76.867 172.271,78.967 170.244,80.250 168.999 C 81.533 167.754,84.571 164.828,87.000 162.499 C 89.429 160.169,93.592 156.159,96.250 153.589 C 98.908 151.019,102.021 148.020,103.167 146.923 C 104.313 145.827,106.375 143.836,107.750 142.500 C 109.125 141.163,112.313 138.087,114.833 135.664 C 119.009 131.650,124.780 126.093,130.667 120.416 C 131.904 119.222,134.954 116.275,137.444 113.866 C 139.934 111.458,142.166 109.334,142.403 109.148 C 145.236 106.919,146.139 101.745,144.297 98.290 C 143.136 96.111,142.198 95.361,137.701 93.012 C 135.986 92.116,133.083 90.595,131.250 89.630 C 125.238 86.468,121.163 84.331,115.750 81.500 C 112.817 79.965,108.954 77.941,107.167 77.000 C 105.379 76.060,102.304 74.447,100.333 73.415 C 98.362 72.384,95.287 70.771,93.500 69.831 C 91.712 68.891,88.750 67.334,86.917 66.372 C 85.083 65.410,82.196 63.893,80.500 63.002 C 74.642 59.924,70.238 57.612,67.000 55.916 C 65.212 54.980,62.288 53.443,60.500 52.502 C 58.712 51.561,56.387 50.340,55.333 49.790 C 51.665 47.875,42.896 43.282,39.667 41.584 C 23.062 32.852,24.454 33.488,22.011 33.517 C 21.226 33.526,20.292 33.602,19.936 33.685 M375.164 33.803 C 374.659 33.970,372.259 35.143,369.831 36.410 C 367.403 37.676,364.554 39.161,363.500 39.709 C 362.446 40.256,361.133 40.950,360.583 41.251 C 360.033 41.551,358.608 42.304,357.417 42.923 C 354.477 44.451,347.367 48.178,338.917 52.620 C 337.175 53.536,334.175 55.112,332.250 56.122 C 330.325 57.133,327.325 58.709,325.583 59.625 C 323.842 60.540,320.879 62.097,319.000 63.083 C 317.121 64.070,314.121 65.645,312.333 66.583 C 310.546 67.522,307.471 69.133,305.500 70.163 C 303.529 71.194,301.242 72.394,300.417 72.831 C 299.592 73.268,296.517 74.881,293.583 76.416 C 283.491 81.696,280.909 83.049,278.167 84.500 C 276.654 85.300,273.729 86.837,271.667 87.917 C 269.604 88.996,266.679 90.533,265.167 91.333 C 263.654 92.132,261.488 93.266,260.353 93.852 C 256.168 96.011,254.341 98.641,254.335 102.511 C 254.331 105.974,254.967 106.956,260.918 112.669 C 262.017 113.725,264.942 116.540,267.417 118.925 C 269.892 121.310,274.017 125.284,276.584 127.756 C 279.152 130.227,284.289 135.177,288.001 138.756 C 291.713 142.334,296.025 146.488,297.583 147.987 C 299.142 149.487,304.119 154.284,308.644 158.648 C 316.804 166.519,322.617 172.115,334.444 183.487 C 337.820 186.734,341.858 190.635,343.417 192.156 C 346.447 195.114,354.360 202.733,365.322 213.250 C 370.505 218.222,372.331 219.874,373.090 220.276 C 377.981 222.865,383.787 220.623,385.812 215.363 L 386.240 214.250 386.347 176.583 C 386.596 88.390,386.563 41.001,386.253 40.000 C 384.789 35.281,379.554 32.356,375.164 33.803 " stroke="none" fill="#003f91" fill-rule="evenodd"></path><path id="path2" d="M39.578 11.912 C 33.916 13.145,31.593 20.246,35.454 24.519 C 36.323 25.481,37.005 25.912,40.842 27.924 C 42.716 28.907,45.788 30.518,47.667 31.503 C 49.546 32.488,52.471 34.024,54.167 34.917 C 55.862 35.809,58.900 37.402,60.917 38.456 C 62.933 39.510,65.183 40.692,65.917 41.083 C 67.057 41.690,73.477 45.060,79.250 48.082 C 81.851 49.443,87.766 52.548,91.250 54.380 C 92.992 55.296,95.879 56.813,97.667 57.751 C 99.454 58.689,102.454 60.265,104.333 61.253 C 110.313 64.398,115.080 66.902,123.917 71.539 C 125.750 72.502,128.712 74.059,130.500 75.000 C 132.287 75.941,135.212 77.477,137.000 78.413 C 138.787 79.349,141.787 80.923,143.667 81.911 C 145.546 82.899,149.408 84.925,152.250 86.414 C 155.092 87.903,158.842 89.870,160.583 90.787 C 163.558 92.353,166.067 93.669,174.333 98.003 C 176.213 98.988,179.100 100.504,180.750 101.372 C 186.626 104.465,190.627 106.567,193.712 108.183 C 200.110 111.536,200.021 111.546,210.000 106.253 C 212.710 104.815,216.880 102.620,222.750 99.540 C 224.675 98.530,229.213 96.149,232.833 94.249 C 241.388 89.760,242.718 89.062,244.917 87.913 C 245.925 87.386,248.175 86.204,249.917 85.287 C 251.658 84.370,254.658 82.795,256.583 81.786 C 258.508 80.777,261.508 79.202,263.250 78.287 C 264.992 77.371,267.879 75.855,269.667 74.917 C 271.454 73.979,274.342 72.462,276.083 71.547 C 277.825 70.631,280.825 69.055,282.750 68.044 C 284.675 67.033,287.637 65.476,289.333 64.583 C 291.029 63.691,293.954 62.155,295.833 61.170 C 297.712 60.185,300.675 58.630,302.417 57.714 C 309.594 53.938,312.593 52.363,315.917 50.624 C 317.842 49.617,322.417 47.219,326.083 45.294 C 329.750 43.370,334.325 40.969,336.250 39.959 C 338.175 38.949,341.063 37.429,342.667 36.583 C 344.271 35.736,347.271 34.160,349.333 33.081 C 351.396 32.002,354.396 30.428,356.000 29.582 C 357.604 28.736,359.892 27.533,361.083 26.909 C 362.760 26.031,363.477 25.546,364.252 24.762 C 368.508 20.465,366.299 13.166,360.362 11.908 C 358.757 11.568,41.141 11.572,39.578 11.912 M162.080 108.568 C 160.791 108.862,159.181 109.542,158.009 110.287 C 157.120 110.851,155.549 112.370,141.417 126.332 C 130.811 136.810,122.071 145.442,115.333 152.093 C 101.883 165.370,92.984 174.156,75.589 191.333 C 71.923 194.954,65.996 200.810,62.420 204.346 C 58.843 207.882,51.182 215.446,45.396 221.155 C 34.205 232.195,33.888 232.550,33.487 234.478 C 32.602 238.745,35.098 242.799,39.133 243.648 C 40.397 243.913,359.603 243.913,360.867 243.648 C 365.434 242.687,368.066 237.288,366.017 233.080 C 365.298 231.603,369.916 236.214,304.750 171.908 C 275.417 142.962,249.467 117.353,247.083 115.000 C 241.458 109.444,240.020 108.579,236.072 108.375 C 232.721 108.202,231.837 108.516,224.750 112.391 C 221.908 113.945,218.608 115.739,217.417 116.379 C 216.225 117.018,214.688 117.859,214.000 118.246 C 206.334 122.569,204.065 123.311,199.104 123.121 C 194.883 122.958,193.509 122.422,184.500 117.424 C 183.629 116.941,181.492 115.774,179.750 114.830 C 178.008 113.886,175.506 112.519,174.190 111.792 C 168.099 108.428,165.603 107.763,162.080 108.568 " stroke="none" fill="#e3f3e3" fill-rule="evenodd"></path><path id="path3" d="M120.292 11.625 C 164.131 11.648,235.869 11.648,279.708 11.625 C 323.548 11.602,287.679 11.583,200.000 11.583 C 112.321 11.583,76.452 11.602,120.292 11.625 M39.333 11.774 C 38.335 12.097,37.659 12.381,37.726 12.448 C 37.769 12.491,37.967 12.440,38.166 12.334 C 38.365 12.227,38.990 12.040,39.556 11.917 C 40.159 11.785,40.377 11.693,40.083 11.693 C 39.808 11.693,39.471 11.729,39.333 11.774 M360.444 11.902 C 361.010 12.033,361.635 12.227,361.834 12.334 C 362.033 12.440,362.229 12.493,362.271 12.451 C 362.411 12.311,360.975 11.823,360.191 11.743 C 359.503 11.673,359.531 11.691,360.444 11.902 M35.629 13.969 C 35.216 14.410,34.791 14.954,34.684 15.177 L 34.490 15.583 34.786 15.167 C 34.949 14.938,35.412 14.394,35.814 13.958 C 36.216 13.523,36.508 13.167,36.462 13.167 C 36.416 13.167,36.041 13.528,35.629 13.969 M364.173 13.917 C 364.583 14.375,365.052 14.938,365.216 15.167 C 365.504 15.569,365.505 15.565,365.221 15.040 C 365.059 14.742,364.590 14.179,364.178 13.790 L 363.429 13.083 364.173 13.917 M35.583 24.833 C 35.941 25.200,36.272 25.500,36.318 25.500 C 36.363 25.500,36.108 25.200,35.750 24.833 C 35.392 24.467,35.062 24.167,35.016 24.167 C 34.970 24.167,35.225 24.467,35.583 24.833 M363.917 25.119 C 363.367 25.635,363.142 25.901,363.417 25.710 C 363.896 25.377,365.145 24.159,364.991 24.174 C 364.950 24.178,364.467 24.604,363.917 25.119 M361.625 26.595 C 361.002 26.933,361.040 27.074,361.667 26.750 C 361.942 26.608,362.167 26.456,362.167 26.412 C 362.167 26.305,362.149 26.311,361.625 26.595 M40.667 27.912 C 40.667 27.958,41.192 28.260,41.833 28.583 C 42.475 28.906,43.000 29.133,43.000 29.088 C 43.000 29.042,42.475 28.740,41.833 28.417 C 41.192 28.094,40.667 27.867,40.667 27.912 M358.125 28.427 C 357.506 28.745,357.000 29.042,357.000 29.088 C 357.000 29.133,357.525 28.906,358.167 28.583 C 358.808 28.260,359.333 27.959,359.333 27.915 C 359.333 27.803,359.380 27.783,358.125 28.427 M351.625 31.844 C 350.915 32.207,350.333 32.541,350.333 32.587 C 350.333 32.633,350.933 32.369,351.667 32.000 C 352.400 31.631,353.000 31.293,353.000 31.248 C 353.000 31.136,353.062 31.109,351.625 31.844 M47.333 31.413 C 47.333 31.459,47.933 31.798,48.667 32.167 C 49.400 32.535,50.000 32.800,50.000 32.754 C 50.000 32.708,49.400 32.369,48.667 32.000 C 47.933 31.631,47.333 31.367,47.333 31.413 M53.667 34.746 C 53.667 34.792,54.267 35.131,55.000 35.500 C 55.733 35.869,56.333 36.133,56.333 36.087 C 56.333 36.041,55.733 35.702,55.000 35.333 C 54.267 34.965,53.667 34.700,53.667 34.746 M344.958 35.344 C 344.248 35.707,343.667 36.041,343.667 36.087 C 343.667 36.133,344.267 35.869,345.000 35.500 C 345.733 35.131,346.333 34.793,346.333 34.748 C 346.333 34.636,346.396 34.609,344.958 35.344 M338.625 38.677 C 337.915 39.040,337.333 39.375,337.333 39.421 C 337.333 39.466,337.933 39.202,338.667 38.833 C 339.400 38.465,340.000 38.126,340.000 38.081 C 340.000 37.969,340.062 37.942,338.625 38.677 M60.333 38.246 C 60.333 38.292,60.933 38.631,61.667 39.000 C 62.400 39.369,63.000 39.633,63.000 39.587 C 63.000 39.541,62.400 39.202,61.667 38.833 C 60.933 38.465,60.333 38.200,60.333 38.246 M331.958 42.177 C 331.248 42.540,330.667 42.875,330.667 42.921 C 330.667 42.966,331.267 42.702,332.000 42.333 C 332.733 41.965,333.333 41.626,333.333 41.581 C 333.333 41.469,333.396 41.442,331.958 42.177 M67.000 41.746 C 67.000 41.792,67.525 42.094,68.167 42.417 C 68.808 42.740,69.333 42.967,69.333 42.921 C 69.333 42.875,68.808 42.573,68.167 42.250 C 67.525 41.927,67.000 41.700,67.000 41.746 M71.167 43.910 C 71.167 43.956,71.467 44.146,71.833 44.333 C 72.200 44.520,72.500 44.636,72.500 44.590 C 72.500 44.544,72.200 44.354,71.833 44.167 C 71.467 43.980,71.167 43.864,71.167 43.910 M328.125 44.178 C 327.781 44.359,327.500 44.545,327.500 44.591 C 327.500 44.636,327.800 44.520,328.167 44.333 C 328.533 44.146,328.833 43.957,328.833 43.913 C 328.833 43.804,328.832 43.805,328.125 44.178 M325.292 45.677 C 324.581 46.040,324.000 46.375,324.000 46.421 C 324.000 46.466,324.600 46.202,325.333 45.833 C 326.067 45.465,326.667 45.126,326.667 45.081 C 326.667 44.969,326.729 44.942,325.292 45.677 M73.667 45.246 C 73.667 45.292,74.192 45.594,74.833 45.917 C 75.475 46.240,76.000 46.467,76.000 46.421 C 76.000 46.375,75.475 46.073,74.833 45.750 C 74.192 45.427,73.667 45.200,73.667 45.246 M77.833 47.408 C 77.833 47.454,78.058 47.608,78.333 47.750 C 78.608 47.892,78.833 47.971,78.833 47.925 C 78.833 47.879,78.608 47.726,78.333 47.583 C 78.058 47.441,77.833 47.362,77.833 47.408 M321.625 47.595 C 321.002 47.933,321.040 48.074,321.667 47.750 C 321.942 47.608,322.167 47.456,322.167 47.412 C 322.167 47.305,322.149 47.311,321.625 47.595 M79.795 48.500 C 80.572 48.974,82.667 50.018,82.667 49.932 C 82.667 49.849,79.505 48.166,79.351 48.167 C 79.295 48.168,79.495 48.317,79.795 48.500 M318.958 49.010 C 318.248 49.374,317.667 49.708,317.667 49.754 C 317.667 49.800,318.267 49.535,319.000 49.167 C 319.733 48.798,320.333 48.460,320.333 48.415 C 320.333 48.303,320.396 48.276,318.958 49.010 M84.167 50.746 C 84.167 50.792,84.692 51.094,85.333 51.417 C 85.975 51.740,86.500 51.967,86.500 51.921 C 86.500 51.875,85.975 51.573,85.333 51.250 C 84.692 50.927,84.167 50.700,84.167 50.746 M314.625 51.260 C 314.006 51.578,313.500 51.875,313.500 51.921 C 313.500 51.967,314.025 51.740,314.667 51.417 C 315.308 51.094,315.833 50.793,315.833 50.748 C 315.833 50.636,315.880 50.616,314.625 51.260 M87.667 52.578 C 87.667 52.624,88.042 52.851,88.500 53.083 C 88.958 53.316,89.333 53.468,89.333 53.422 C 89.333 53.376,88.958 53.149,88.500 52.917 C 88.042 52.684,87.667 52.532,87.667 52.578 M311.625 52.845 C 311.281 53.026,311.000 53.212,311.000 53.257 C 311.000 53.303,311.300 53.187,311.667 53.000 C 312.033 52.813,312.333 52.624,312.333 52.580 C 312.333 52.471,312.332 52.471,311.625 52.845 M90.833 54.246 C 90.833 54.292,91.358 54.594,92.000 54.917 C 92.642 55.240,93.167 55.467,93.167 55.421 C 93.167 55.375,92.642 55.073,92.000 54.750 C 91.358 54.427,90.833 54.200,90.833 54.246 M308.125 54.677 C 307.598 54.949,307.167 55.209,307.167 55.255 C 307.167 55.301,307.617 55.111,308.167 54.833 C 308.717 54.556,309.167 54.292,309.167 54.248 C 309.167 54.136,309.198 54.124,308.125 54.677 M305.292 56.177 C 304.765 56.449,304.333 56.709,304.333 56.755 C 304.333 56.801,304.783 56.611,305.333 56.333 C 305.883 56.056,306.333 55.792,306.333 55.748 C 306.333 55.636,306.364 55.624,305.292 56.177 M97.167 57.580 C 97.167 57.625,97.767 57.965,98.500 58.333 C 99.233 58.702,99.833 58.966,99.833 58.920 C 99.833 58.875,99.233 58.535,98.500 58.167 C 97.767 57.798,97.167 57.534,97.167 57.580 M301.625 58.094 C 301.006 58.411,300.500 58.709,300.500 58.754 C 300.500 58.800,301.025 58.573,301.667 58.250 C 302.308 57.927,302.833 57.626,302.833 57.581 C 302.833 57.469,302.880 57.450,301.625 58.094 M294.958 61.594 C 294.156 62.002,293.500 62.374,293.500 62.420 C 293.500 62.466,294.175 62.164,295.000 61.750 C 295.825 61.336,296.500 60.960,296.500 60.915 C 296.500 60.802,296.578 60.768,294.958 61.594 M103.833 61.080 C 103.833 61.125,104.433 61.465,105.167 61.833 C 105.900 62.202,106.500 62.466,106.500 62.420 C 106.500 62.375,105.900 62.035,105.167 61.667 C 104.433 61.298,103.833 61.034,103.833 61.080 M288.458 65.010 C 287.748 65.374,287.167 65.708,287.167 65.754 C 287.167 65.800,287.767 65.535,288.500 65.167 C 289.233 64.798,289.833 64.460,289.833 64.415 C 289.833 64.303,289.896 64.276,288.458 65.010 M110.500 64.580 C 110.500 64.625,111.100 64.965,111.833 65.333 C 112.567 65.702,113.167 65.966,113.167 65.920 C 113.167 65.875,112.567 65.535,111.833 65.167 C 111.100 64.798,110.500 64.534,110.500 64.580 M281.792 68.510 C 281.081 68.874,280.500 69.208,280.500 69.254 C 280.500 69.300,281.100 69.035,281.833 68.667 C 282.567 68.298,283.167 67.960,283.167 67.915 C 283.167 67.803,283.229 67.776,281.792 68.510 M117.167 68.080 C 117.167 68.125,117.767 68.465,118.500 68.833 C 119.233 69.202,119.833 69.466,119.833 69.420 C 119.833 69.375,119.233 69.035,118.500 68.667 C 117.767 68.298,117.167 68.034,117.167 68.080 M123.500 71.413 C 123.500 71.459,124.175 71.836,125.000 72.250 C 125.825 72.664,126.500 72.966,126.500 72.920 C 126.500 72.874,125.825 72.498,125.000 72.083 C 124.175 71.669,123.500 71.367,123.500 71.413 M275.125 72.010 C 274.415 72.374,273.833 72.708,273.833 72.754 C 273.833 72.800,274.433 72.535,275.167 72.167 C 275.900 71.798,276.500 71.460,276.500 71.415 C 276.500 71.303,276.562 71.276,275.125 72.010 M130.167 74.913 C 130.167 74.959,130.767 75.298,131.500 75.667 C 132.233 76.035,132.833 76.300,132.833 76.254 C 132.833 76.208,132.233 75.869,131.500 75.500 C 130.767 75.131,130.167 74.867,130.167 74.913 M268.458 75.510 C 267.748 75.874,267.167 76.208,267.167 76.254 C 267.167 76.300,267.767 76.035,268.500 75.667 C 269.233 75.298,269.833 74.960,269.833 74.915 C 269.833 74.803,269.896 74.776,268.458 75.510 M262.125 78.844 C 261.415 79.207,260.833 79.541,260.833 79.587 C 260.833 79.633,261.433 79.369,262.167 79.000 C 262.900 78.631,263.500 78.293,263.500 78.248 C 263.500 78.136,263.562 78.109,262.125 78.844 M136.833 78.413 C 136.833 78.459,137.433 78.798,138.167 79.167 C 138.900 79.535,139.500 79.800,139.500 79.754 C 139.500 79.708,138.900 79.369,138.167 79.000 C 137.433 78.631,136.833 78.367,136.833 78.413 M143.500 81.912 C 143.500 81.958,144.025 82.260,144.667 82.583 C 145.308 82.906,145.833 83.133,145.833 83.088 C 145.833 83.042,145.308 82.740,144.667 82.417 C 144.025 82.094,143.500 81.867,143.500 81.912 M255.292 82.427 C 254.673 82.745,254.167 83.042,254.167 83.088 C 254.167 83.133,254.692 82.906,255.333 82.583 C 255.975 82.260,256.500 81.959,256.500 81.915 C 256.500 81.803,256.547 81.783,255.292 82.427 M252.125 84.095 C 251.502 84.433,251.540 84.574,252.167 84.250 C 252.442 84.108,252.667 83.956,252.667 83.912 C 252.667 83.805,252.649 83.811,252.125 84.095 M147.667 84.075 C 147.667 84.121,147.892 84.274,148.167 84.417 C 148.442 84.559,148.667 84.638,148.667 84.592 C 148.667 84.546,148.442 84.392,148.167 84.250 C 147.892 84.108,147.667 84.029,147.667 84.075 M149.833 85.246 C 149.833 85.292,150.433 85.631,151.167 86.000 C 151.900 86.369,152.500 86.633,152.500 86.587 C 152.500 86.541,151.900 86.202,151.167 85.833 C 150.433 85.465,149.833 85.200,149.833 85.246 M248.958 85.760 C 248.340 86.078,247.833 86.375,247.833 86.421 C 247.833 86.467,248.358 86.240,249.000 85.917 C 249.642 85.594,250.167 85.293,250.167 85.248 C 250.167 85.136,250.213 85.116,248.958 85.760 M154.000 87.412 C 154.000 87.458,154.525 87.760,155.167 88.083 C 155.808 88.406,156.333 88.633,156.333 88.588 C 156.333 88.542,155.808 88.240,155.167 87.917 C 154.525 87.594,154.000 87.367,154.000 87.412 M242.639 89.063 C 241.936 89.441,241.299 89.815,241.222 89.894 C 241.075 90.047,243.574 88.802,244.000 88.510 C 244.564 88.124,243.836 88.420,242.639 89.063 M156.500 88.746 C 156.500 88.792,157.025 89.094,157.667 89.417 C 158.308 89.740,158.833 89.967,158.833 89.921 C 158.833 89.875,158.308 89.573,157.667 89.250 C 157.025 88.927,156.500 88.700,156.500 88.746 M160.667 90.912 C 160.667 90.958,161.117 91.222,161.667 91.500 C 162.217 91.778,162.667 91.967,162.667 91.921 C 162.667 91.876,162.217 91.611,161.667 91.333 C 161.117 91.056,160.667 90.866,160.667 90.912 M238.292 91.344 C 237.765 91.616,237.333 91.876,237.333 91.922 C 237.333 91.967,237.783 91.778,238.333 91.500 C 238.883 91.222,239.333 90.959,239.333 90.914 C 239.333 90.803,239.364 90.790,238.292 91.344 M235.625 92.760 C 235.006 93.078,234.500 93.375,234.500 93.421 C 234.500 93.467,235.025 93.240,235.667 92.917 C 236.308 92.594,236.833 92.293,236.833 92.248 C 236.833 92.136,236.880 92.116,235.625 92.760 M163.500 92.412 C 163.500 92.458,163.950 92.722,164.500 93.000 C 165.050 93.278,165.500 93.467,165.500 93.421 C 165.500 93.376,165.050 93.111,164.500 92.833 C 163.950 92.556,163.500 92.366,163.500 92.412 M231.958 94.677 C 231.431 94.949,231.000 95.209,231.000 95.255 C 231.000 95.301,231.450 95.111,232.000 94.833 C 232.550 94.556,233.000 94.292,233.000 94.248 C 233.000 94.136,233.031 94.124,231.958 94.677 M167.333 94.412 C 167.333 94.458,167.858 94.760,168.500 95.083 C 169.142 95.406,169.667 95.633,169.667 95.588 C 169.667 95.542,169.142 95.240,168.500 94.917 C 167.858 94.594,167.333 94.367,167.333 94.412 M169.833 95.746 C 169.833 95.792,170.358 96.094,171.000 96.417 C 171.642 96.740,172.167 96.967,172.167 96.921 C 172.167 96.875,171.642 96.573,171.000 96.250 C 170.358 95.927,169.833 95.700,169.833 95.746 M229.125 96.177 C 228.598 96.449,228.167 96.709,228.167 96.755 C 228.167 96.801,228.617 96.611,229.167 96.333 C 229.717 96.056,230.167 95.792,230.167 95.748 C 230.167 95.636,230.198 95.624,229.125 96.177 M225.125 98.260 C 224.506 98.578,224.000 98.875,224.000 98.921 C 224.000 98.967,224.525 98.740,225.167 98.417 C 225.808 98.094,226.333 97.793,226.333 97.748 C 226.333 97.636,226.380 97.616,225.125 98.260 M174.000 97.900 C 174.000 98.009,176.885 99.503,176.958 99.431 C 176.989 99.400,176.336 99.024,175.507 98.596 C 174.678 98.168,174.000 97.855,174.000 97.900 M222.458 99.677 C 221.931 99.949,221.500 100.209,221.500 100.255 C 221.500 100.301,221.950 100.111,222.500 99.833 C 223.050 99.556,223.500 99.292,223.500 99.248 C 223.500 99.136,223.531 99.124,222.458 99.677 M177.833 99.908 C 177.833 99.954,178.058 100.108,178.333 100.250 C 178.608 100.392,178.833 100.471,178.833 100.425 C 178.833 100.379,178.608 100.226,178.333 100.083 C 178.058 99.941,177.833 99.862,177.833 99.908 M180.333 101.246 C 180.333 101.292,180.933 101.631,181.667 102.000 C 182.400 102.369,183.000 102.633,183.000 102.587 C 183.000 102.541,182.400 102.202,181.667 101.833 C 180.933 101.465,180.333 101.200,180.333 101.246 M218.292 101.844 C 217.581 102.207,217.000 102.541,217.000 102.587 C 217.000 102.633,217.600 102.369,218.333 102.000 C 219.067 101.631,219.667 101.293,219.667 101.248 C 219.667 101.136,219.729 101.109,218.292 101.844 M184.167 103.241 C 184.167 103.287,184.392 103.441,184.667 103.583 C 184.942 103.726,185.167 103.804,185.167 103.759 C 185.167 103.713,184.942 103.559,184.667 103.417 C 184.392 103.274,184.167 103.196,184.167 103.241 M215.292 103.429 C 214.669 103.767,214.707 103.907,215.333 103.583 C 215.608 103.441,215.833 103.289,215.833 103.246 C 215.833 103.138,215.815 103.145,215.292 103.429 M187.000 104.746 C 187.000 104.792,187.525 105.094,188.167 105.417 C 188.808 105.740,189.333 105.967,189.333 105.921 C 189.333 105.875,188.808 105.573,188.167 105.250 C 187.525 104.927,187.000 104.700,187.000 104.746 M211.958 105.177 C 211.431 105.449,211.000 105.709,211.000 105.755 C 211.000 105.801,211.450 105.611,212.000 105.333 C 212.550 105.056,213.000 104.792,213.000 104.748 C 213.000 104.636,213.031 104.624,211.958 105.177 M208.958 106.762 C 208.335 107.100,208.373 107.241,209.000 106.917 C 209.275 106.774,209.500 106.623,209.500 106.579 C 209.500 106.472,209.482 106.478,208.958 106.762 M205.292 108.677 C 204.581 109.040,204.000 109.375,204.000 109.421 C 204.000 109.466,204.600 109.202,205.333 108.833 C 206.067 108.465,206.667 108.126,206.667 108.081 C 206.667 107.969,206.729 107.942,205.292 108.677 M164.042 108.288 C 164.385 108.324,164.948 108.324,165.292 108.288 C 165.635 108.252,165.354 108.223,164.667 108.223 C 163.979 108.223,163.698 108.252,164.042 108.288 M193.667 108.246 C 193.667 108.292,194.192 108.594,194.833 108.917 C 195.475 109.240,196.000 109.467,196.000 109.421 C 196.000 109.375,195.475 109.073,194.833 108.750 C 194.192 108.427,193.667 108.200,193.667 108.246 M234.708 108.288 C 235.052 108.324,235.615 108.324,235.958 108.288 C 236.302 108.252,236.021 108.223,235.333 108.223 C 234.646 108.223,234.365 108.252,234.708 108.288 M160.083 109.072 C 158.992 109.598,159.158 109.605,160.417 109.087 C 160.967 108.860,161.304 108.674,161.167 108.673 C 161.029 108.672,160.542 108.852,160.083 109.072 M230.750 109.080 C 229.647 109.599,229.856 109.606,231.097 109.090 C 231.639 108.865,231.971 108.682,231.833 108.684 C 231.696 108.686,231.208 108.864,230.750 109.080 M239.407 109.004 C 239.860 109.181,240.257 109.299,240.289 109.267 C 240.368 109.187,239.045 108.665,238.788 108.674 C 238.676 108.679,238.954 108.827,239.407 109.004 M169.333 109.250 C 169.563 109.381,169.825 109.488,169.917 109.488 C 170.008 109.488,169.896 109.381,169.667 109.250 C 169.438 109.119,169.175 109.012,169.083 109.012 C 168.992 109.012,169.104 109.119,169.333 109.250 M170.500 109.741 C 170.500 109.787,170.725 109.941,171.000 110.083 C 171.275 110.226,171.500 110.304,171.500 110.259 C 171.500 110.213,171.275 110.059,171.000 109.917 C 170.725 109.774,170.500 109.696,170.500 109.741 M228.958 109.929 C 228.335 110.267,228.373 110.407,229.000 110.083 C 229.275 109.941,229.500 109.789,229.500 109.746 C 229.500 109.638,229.482 109.645,228.958 109.929 M151.879 115.839 C 149.292 118.402,147.230 120.498,147.296 120.495 C 147.362 120.492,149.517 118.393,152.083 115.830 C 154.650 113.268,156.712 111.173,156.667 111.174 C 156.621 111.176,154.467 113.275,151.879 115.839 M246.833 114.725 C 248.804 116.722,251.017 118.890,251.750 119.542 C 252.483 120.195,252.933 120.579,252.750 120.396 C 252.567 120.213,250.354 118.045,247.833 115.579 C 243.377 111.218,243.349 111.194,246.833 114.725 M173.833 111.578 C 173.833 111.624,174.208 111.851,174.667 112.083 C 175.125 112.316,175.500 112.468,175.500 112.422 C 175.500 112.376,175.125 112.149,174.667 111.917 C 174.208 111.684,173.833 111.532,173.833 111.578 M225.458 111.845 C 225.115 112.026,224.833 112.212,224.833 112.257 C 224.833 112.303,225.133 112.187,225.500 112.000 C 225.867 111.813,226.167 111.624,226.167 111.580 C 226.167 111.471,226.165 111.471,225.458 111.845 M175.667 112.578 C 175.667 112.624,176.042 112.851,176.500 113.083 C 176.958 113.316,177.333 113.468,177.333 113.422 C 177.333 113.376,176.958 113.149,176.500 112.917 C 176.042 112.684,175.667 112.532,175.667 112.578 M223.625 112.845 C 223.281 113.026,223.000 113.212,223.000 113.257 C 223.000 113.303,223.300 113.187,223.667 113.000 C 224.033 112.813,224.333 112.624,224.333 112.580 C 224.333 112.471,224.332 112.471,223.625 112.845 M179.667 114.743 C 179.667 114.789,179.967 114.980,180.333 115.167 C 180.700 115.354,181.000 115.469,181.000 115.423 C 181.000 115.378,180.700 115.187,180.333 115.000 C 179.967 114.813,179.667 114.697,179.667 114.743 M218.792 115.478 C 217.991 115.917,217.278 116.339,217.209 116.417 C 217.054 116.590,220.022 115.023,220.242 114.816 C 220.521 114.553,220.281 114.662,218.792 115.478 M181.167 115.578 C 181.167 115.624,181.542 115.851,182.000 116.083 C 182.458 116.316,182.833 116.468,182.833 116.422 C 182.833 116.376,182.458 116.149,182.000 115.917 C 181.542 115.684,181.167 115.532,181.167 115.578 M186.667 118.578 C 186.667 118.624,187.042 118.851,187.500 119.083 C 187.958 119.316,188.333 119.468,188.333 119.422 C 188.333 119.376,187.958 119.149,187.500 118.917 C 187.042 118.684,186.667 118.532,186.667 118.578 M212.458 118.928 C 212.023 119.154,211.667 119.377,211.667 119.423 C 211.667 119.468,212.042 119.316,212.500 119.083 C 212.958 118.851,213.333 118.625,213.333 118.581 C 213.333 118.470,213.348 118.464,212.458 118.928 M210.792 119.845 C 210.448 120.026,210.167 120.212,210.167 120.257 C 210.167 120.303,210.467 120.187,210.833 120.000 C 211.200 119.813,211.500 119.624,211.500 119.580 C 211.500 119.471,211.499 119.471,210.792 119.845 M208.167 121.250 C 207.754 121.471,207.476 121.655,207.548 121.659 C 207.725 121.669,209.000 121.014,209.000 120.913 C 209.000 120.803,209.007 120.800,208.167 121.250 M253.333 121.044 C 253.333 121.090,261.902 129.583,272.375 139.916 C 282.848 150.249,288.038 155.339,283.909 151.227 C 272.795 140.158,253.333 120.946,253.333 121.044 M139.898 127.657 C 136.496 131.039,133.796 133.771,133.898 133.729 C 134.109 133.642,146.294 121.504,146.167 121.507 C 146.121 121.509,143.300 124.276,139.898 127.657 M192.833 121.805 C 192.971 121.890,193.271 122.010,193.500 122.071 C 193.790 122.149,193.840 122.135,193.667 122.028 C 193.529 121.943,193.229 121.824,193.000 121.762 C 192.710 121.685,192.660 121.698,192.833 121.805 M206.583 121.923 C 206.167 122.123,206.153 122.146,206.500 122.062 C 206.972 121.946,207.503 121.676,207.250 121.679 C 207.158 121.681,206.858 121.790,206.583 121.923 M195.128 122.590 C 195.519 122.713,196.194 122.855,196.628 122.905 C 197.166 122.967,196.994 122.894,196.083 122.674 C 194.551 122.304,194.091 122.264,195.128 122.590 M203.833 122.684 C 202.885 122.919,202.774 122.971,203.372 122.903 C 204.150 122.815,205.819 122.362,205.333 122.371 C 205.196 122.374,204.521 122.515,203.833 122.684 M198.044 123.120 C 198.297 123.158,198.672 123.157,198.877 123.117 C 199.082 123.078,198.875 123.046,198.417 123.048 C 197.958 123.049,197.791 123.081,198.044 123.120 M201.211 123.120 C 201.464 123.158,201.839 123.157,202.044 123.117 C 202.249 123.078,202.042 123.046,201.583 123.048 C 201.125 123.049,200.957 123.081,201.211 123.120 M126.000 141.382 C 122.379 144.976,119.766 147.617,120.193 147.250 C 121.074 146.494,132.795 134.834,132.667 134.842 C 132.621 134.845,129.621 137.788,126.000 141.382 M113.749 153.542 L 108.583 158.750 113.792 153.584 C 116.656 150.743,119.000 148.399,119.000 148.376 C 119.000 148.258,118.550 148.701,113.749 153.542 M106.995 160.118 C 105.973 161.177,105.964 161.192,106.831 160.409 C 108.086 159.276,108.355 159.000,108.204 159.000 C 108.132 159.000,107.588 159.503,106.995 160.118 M298.167 165.417 C 301.695 168.946,304.619 171.833,304.665 171.833 C 304.711 171.833,301.862 168.946,298.333 165.417 C 294.805 161.887,291.881 159.000,291.835 159.000 C 291.789 159.000,294.638 161.887,298.167 165.417 M100.332 166.792 L 95.250 171.917 100.375 166.834 C 103.194 164.039,105.500 161.733,105.500 161.709 C 105.500 161.592,105.055 162.029,100.332 166.792 M93.583 173.369 L 92.583 174.396 93.500 173.579 C 94.295 172.871,94.797 172.322,94.633 172.338 C 94.606 172.341,94.133 172.805,93.583 173.369 M311.500 178.583 C 314.937 182.021,317.786 184.833,317.832 184.833 C 317.877 184.833,315.103 182.021,311.667 178.583 C 308.230 175.146,305.381 172.333,305.335 172.333 C 305.289 172.333,308.063 175.146,311.500 178.583 M87.082 179.875 L 82.083 184.917 87.125 179.918 C 89.898 177.168,92.167 174.900,92.167 174.876 C 92.167 174.758,91.728 175.190,87.082 179.875 M74.838 191.956 L 68.750 198.078 74.912 191.997 C 78.302 188.653,81.108 185.898,81.149 185.875 C 81.189 185.852,81.156 185.833,81.074 185.833 C 80.993 185.833,78.186 188.588,74.838 191.956 M324.916 191.793 C 328.215 195.115,330.941 197.833,330.972 197.833 C 331.115 197.833,329.847 196.547,324.569 191.335 L 318.917 185.752 324.916 191.793 M61.499 205.119 C 58.245 208.392,55.635 211.036,55.699 210.994 C 55.958 210.821,67.596 199.167,67.509 199.167 C 67.457 199.167,64.753 201.845,61.499 205.119 M338.332 205.043 C 341.586 208.319,344.274 211.000,344.306 211.000 C 344.448 211.000,343.186 209.719,337.986 204.585 L 332.417 199.086 338.332 205.043 M47.999 218.458 L 42.083 224.417 48.042 218.501 C 51.319 215.247,54.000 212.566,54.000 212.543 C 54.000 212.425,53.497 212.921,47.999 218.458 M351.750 218.333 C 354.957 221.542,357.619 224.167,357.665 224.167 C 357.711 224.167,355.124 221.542,351.917 218.333 C 348.709 215.125,346.048 212.500,346.002 212.500 C 345.956 212.500,348.543 215.125,351.750 218.333 M362.167 228.583 C 363.769 230.188,365.117 231.500,365.163 231.500 C 365.209 231.500,363.936 230.188,362.333 228.583 C 360.731 226.979,359.383 225.667,359.337 225.667 C 359.291 225.667,360.564 226.979,362.167 228.583 M37.665 228.625 L 34.917 231.417 37.708 228.669 C 40.302 226.115,40.575 225.833,40.456 225.833 C 40.432 225.833,39.176 227.090,37.665 228.625 M33.221 236.250 C 33.222 236.892,33.252 237.134,33.288 236.788 C 33.324 236.442,33.324 235.917,33.287 235.621 C 33.250 235.325,33.221 235.608,33.221 236.250 M366.721 236.250 C 366.722 236.892,366.752 237.134,366.788 236.788 C 366.824 236.442,366.824 235.917,366.787 235.621 C 366.750 235.325,366.721 235.608,366.721 236.250 M35.000 241.385 C 35.000 241.414,35.244 241.658,35.542 241.927 L 36.083 242.417 35.594 241.875 C 35.138 241.370,35.000 241.257,35.000 241.385 M364.406 241.875 L 363.917 242.417 364.458 241.927 C 364.963 241.471,365.077 241.333,364.948 241.333 C 364.919 241.333,364.675 241.577,364.406 241.875 " stroke="none" fill="#ac94ac" fill-rule="evenodd"></path><path id="path4" d="M21.458 33.454 C 21.756 33.491,22.244 33.491,22.542 33.454 C 22.840 33.417,22.596 33.387,22.000 33.387 C 21.404 33.387,21.160 33.417,21.458 33.454 M377.128 33.454 C 377.428 33.491,377.878 33.490,378.128 33.452 C 378.378 33.414,378.133 33.384,377.583 33.385 C 377.033 33.386,376.828 33.417,377.128 33.454 M373.292 34.429 C 372.645 34.779,372.719 34.900,373.375 34.566 C 374.003 34.247,374.114 34.164,373.903 34.173 C 373.819 34.177,373.544 34.292,373.292 34.429 M16.483 35.292 C 15.912 35.727,15.260 36.346,15.033 36.667 C 14.677 37.170,14.702 37.156,15.220 36.567 C 15.549 36.191,16.235 35.597,16.743 35.247 C 17.602 34.656,17.779 34.500,17.593 34.500 C 17.552 34.500,17.053 34.856,16.483 35.292 M383.000 35.266 C 383.321 35.522,383.913 36.074,384.315 36.491 C 384.929 37.128,384.976 37.155,384.610 36.656 C 384.197 36.092,383.209 35.216,382.667 34.931 C 382.529 34.859,382.679 35.009,383.000 35.266 M27.333 35.080 C 27.333 35.125,27.933 35.465,28.667 35.833 C 29.400 36.202,30.000 36.466,30.000 36.420 C 30.000 36.375,29.400 36.035,28.667 35.667 C 27.933 35.298,27.333 35.034,27.333 35.080 M370.458 35.927 C 369.840 36.245,369.333 36.542,369.333 36.588 C 369.333 36.633,369.858 36.406,370.500 36.083 C 371.142 35.760,371.667 35.459,371.667 35.415 C 371.667 35.303,371.713 35.283,370.458 35.927 M31.833 37.411 C 31.833 37.457,32.208 37.684,32.667 37.917 C 33.125 38.149,33.500 38.301,33.500 38.256 C 33.500 38.210,33.125 37.982,32.667 37.750 C 32.208 37.518,31.833 37.365,31.833 37.411 M365.952 38.276 C 365.146 38.698,364.512 39.067,364.543 39.098 C 364.611 39.167,367.500 37.678,367.500 37.574 C 367.500 37.465,367.535 37.449,365.952 38.276 M34.333 38.746 C 34.333 38.792,34.858 39.094,35.500 39.417 C 36.142 39.740,36.667 39.967,36.667 39.921 C 36.667 39.875,36.142 39.573,35.500 39.250 C 34.858 38.927,34.333 38.700,34.333 38.746 M38.583 40.955 C 38.675 41.048,39.800 41.670,41.083 42.337 C 42.367 43.004,43.342 43.474,43.250 43.382 C 43.158 43.289,42.033 42.667,40.750 42.000 C 39.467 41.333,38.492 40.862,38.583 40.955 M359.625 41.594 C 359.006 41.911,358.500 42.209,358.500 42.254 C 358.500 42.300,359.025 42.073,359.667 41.750 C 360.308 41.427,360.833 41.126,360.833 41.081 C 360.833 40.969,360.880 40.950,359.625 41.594 M357.000 43.000 C 356.679 43.176,356.477 43.323,356.550 43.326 C 356.727 43.336,357.667 42.847,357.667 42.746 C 357.667 42.637,357.657 42.640,357.000 43.000 M45.167 44.412 C 45.167 44.458,45.617 44.722,46.167 45.000 C 46.717 45.278,47.167 45.467,47.167 45.421 C 47.167 45.376,46.717 45.111,46.167 44.833 C 45.617 44.556,45.167 44.366,45.167 44.412 M352.958 45.094 C 352.156 45.502,351.500 45.874,351.500 45.920 C 351.500 45.966,352.175 45.664,353.000 45.250 C 353.825 44.836,354.500 44.460,354.500 44.415 C 354.500 44.302,354.578 44.268,352.958 45.094 M48.333 46.078 C 48.333 46.124,48.708 46.351,49.167 46.583 C 49.625 46.816,50.000 46.968,50.000 46.922 C 50.000 46.876,49.625 46.649,49.167 46.417 C 48.708 46.184,48.333 46.032,48.333 46.078 M51.500 47.746 C 51.500 47.792,52.100 48.131,52.833 48.500 C 53.567 48.869,54.167 49.133,54.167 49.087 C 54.167 49.041,53.567 48.702,52.833 48.333 C 52.100 47.965,51.500 47.700,51.500 47.746 M346.292 48.594 C 345.490 49.002,344.833 49.374,344.833 49.420 C 344.833 49.466,345.508 49.164,346.333 48.750 C 347.158 48.336,347.833 47.960,347.833 47.915 C 347.833 47.802,347.911 47.768,346.292 48.594 M58.500 51.412 C 58.500 51.458,59.025 51.760,59.667 52.083 C 60.308 52.406,60.833 52.633,60.833 52.588 C 60.833 52.542,60.308 52.240,59.667 51.917 C 59.025 51.594,58.500 51.367,58.500 51.412 M339.792 52.010 C 339.081 52.374,338.500 52.708,338.500 52.754 C 338.500 52.800,339.100 52.535,339.833 52.167 C 340.567 51.798,341.167 51.460,341.167 51.415 C 341.167 51.303,341.229 51.276,339.792 52.010 M386.581 77.083 C 386.581 90.742,386.601 96.305,386.625 89.445 C 386.649 82.586,386.649 71.411,386.625 64.612 C 386.601 57.813,386.581 63.425,386.581 77.083 M62.333 53.408 C 62.333 53.454,62.558 53.608,62.833 53.750 C 63.108 53.892,63.333 53.971,63.333 53.925 C 63.333 53.879,63.108 53.726,62.833 53.583 C 62.558 53.441,62.333 53.362,62.333 53.408 M64.833 54.746 C 64.833 54.792,65.433 55.131,66.167 55.500 C 66.900 55.869,67.500 56.133,67.500 56.087 C 67.500 56.041,66.900 55.702,66.167 55.333 C 65.433 54.965,64.833 54.700,64.833 54.746 M333.125 55.510 C 332.415 55.874,331.833 56.208,331.833 56.254 C 331.833 56.300,332.433 56.035,333.167 55.667 C 333.900 55.298,334.500 54.960,334.500 54.915 C 334.500 54.803,334.562 54.776,333.125 55.510 M71.500 58.246 C 71.500 58.292,72.100 58.631,72.833 59.000 C 73.567 59.369,74.167 59.633,74.167 59.587 C 74.167 59.541,73.567 59.202,72.833 58.833 C 72.100 58.465,71.500 58.200,71.500 58.246 M326.458 59.010 C 325.748 59.374,325.167 59.708,325.167 59.754 C 325.167 59.800,325.767 59.535,326.500 59.167 C 327.233 58.798,327.833 58.460,327.833 58.415 C 327.833 58.303,327.896 58.276,326.458 59.010 M323.125 60.762 C 322.502 61.100,322.540 61.241,323.167 60.917 C 323.442 60.774,323.667 60.623,323.667 60.579 C 323.667 60.472,323.649 60.478,323.125 60.762 M78.167 61.746 C 78.167 61.792,78.767 62.131,79.500 62.500 C 80.233 62.869,80.833 63.133,80.833 63.087 C 80.833 63.041,80.233 62.702,79.500 62.333 C 78.767 61.965,78.167 61.700,78.167 61.746 M319.792 62.510 C 319.081 62.874,318.500 63.208,318.500 63.254 C 318.500 63.300,319.100 63.035,319.833 62.667 C 320.567 62.298,321.167 61.960,321.167 61.915 C 321.167 61.803,321.229 61.776,319.792 62.510 M82.667 64.075 C 82.667 64.121,82.892 64.274,83.167 64.417 C 83.442 64.559,83.667 64.638,83.667 64.592 C 83.667 64.546,83.442 64.392,83.167 64.250 C 82.892 64.108,82.667 64.029,82.667 64.075 M316.125 64.428 C 315.690 64.654,315.333 64.877,315.333 64.923 C 315.333 64.968,315.708 64.816,316.167 64.583 C 316.625 64.351,317.000 64.125,317.000 64.081 C 317.000 63.970,317.015 63.964,316.125 64.428 M84.500 65.080 C 84.500 65.126,85.175 65.502,86.000 65.917 C 86.825 66.331,87.500 66.633,87.500 66.587 C 87.500 66.541,86.825 66.164,86.000 65.750 C 85.175 65.336,84.500 65.034,84.500 65.080 M313.125 66.010 C 312.415 66.374,311.833 66.708,311.833 66.754 C 311.833 66.800,312.433 66.535,313.167 66.167 C 313.900 65.798,314.500 65.460,314.500 65.415 C 314.500 65.303,314.562 65.276,313.125 66.010 M89.000 67.411 C 89.000 67.457,89.375 67.684,89.833 67.917 C 90.292 68.149,90.667 68.301,90.667 68.256 C 90.667 68.210,90.292 67.982,89.833 67.750 C 89.375 67.518,89.000 67.365,89.000 67.411 M309.292 68.011 C 308.765 68.283,308.333 68.543,308.333 68.588 C 308.333 68.634,308.783 68.444,309.333 68.167 C 309.883 67.889,310.333 67.625,310.333 67.581 C 310.333 67.470,310.364 67.457,309.292 68.011 M91.500 68.746 C 91.500 68.792,92.025 69.094,92.667 69.417 C 93.308 69.740,93.833 69.967,93.833 69.921 C 93.833 69.875,93.308 69.573,92.667 69.250 C 92.025 68.927,91.500 68.700,91.500 68.746 M306.458 69.510 C 305.748 69.874,305.167 70.208,305.167 70.254 C 305.167 70.300,305.767 70.035,306.500 69.667 C 307.233 69.298,307.833 68.960,307.833 68.915 C 307.833 68.803,307.896 68.776,306.458 69.510 M95.667 70.910 C 95.667 70.956,95.967 71.146,96.333 71.333 C 96.700 71.520,97.000 71.636,97.000 71.590 C 97.000 71.544,96.700 71.354,96.333 71.167 C 95.967 70.980,95.667 70.864,95.667 70.910 M302.458 71.594 C 301.840 71.911,301.333 72.209,301.333 72.254 C 301.333 72.300,301.858 72.073,302.500 71.750 C 303.142 71.427,303.667 71.126,303.667 71.081 C 303.667 70.969,303.713 70.950,302.458 71.594 M13.082 102.417 C 13.082 119.467,13.101 126.466,13.125 117.972 C 13.149 109.477,13.149 95.527,13.125 86.972 C 13.101 78.416,13.082 85.367,13.082 102.417 M97.833 72.080 C 97.833 72.125,98.433 72.465,99.167 72.833 C 99.900 73.202,100.500 73.466,100.500 73.420 C 100.500 73.375,99.900 73.035,99.167 72.667 C 98.433 72.298,97.833 72.034,97.833 72.080 M299.458 73.178 C 299.115 73.359,298.833 73.545,298.833 73.591 C 298.833 73.636,299.133 73.520,299.500 73.333 C 299.867 73.146,300.167 72.957,300.167 72.913 C 300.167 72.804,300.165 72.805,299.458 73.178 M102.333 74.412 C 102.333 74.458,102.858 74.760,103.500 75.083 C 104.142 75.406,104.667 75.633,104.667 75.588 C 104.667 75.542,104.142 75.240,103.500 74.917 C 102.858 74.594,102.333 74.367,102.333 74.412 M295.625 75.177 C 294.915 75.540,294.333 75.875,294.333 75.921 C 294.333 75.966,294.933 75.702,295.667 75.333 C 296.400 74.965,297.000 74.626,297.000 74.581 C 297.000 74.469,297.062 74.442,295.625 75.177 M105.167 75.912 C 105.167 75.958,105.617 76.222,106.167 76.500 C 106.717 76.778,107.167 76.967,107.167 76.921 C 107.167 76.876,106.717 76.611,106.167 76.333 C 105.617 76.056,105.167 75.866,105.167 75.912 M292.958 76.594 C 292.523 76.821,292.167 77.044,292.167 77.089 C 292.167 77.135,292.542 76.982,293.000 76.750 C 293.458 76.518,293.833 76.291,293.833 76.247 C 293.833 76.137,293.848 76.131,292.958 76.594 M109.000 77.912 C 109.000 77.958,109.525 78.260,110.167 78.583 C 110.808 78.906,111.333 79.133,111.333 79.088 C 111.333 79.042,110.808 78.740,110.167 78.417 C 109.525 78.094,109.000 77.867,109.000 77.912 M288.958 78.677 C 288.248 79.040,287.667 79.375,287.667 79.421 C 287.667 79.466,288.267 79.202,289.000 78.833 C 289.733 78.465,290.333 78.126,290.333 78.081 C 290.333 77.969,290.396 77.942,288.958 78.677 M111.833 79.412 C 111.833 79.458,112.283 79.722,112.833 80.000 C 113.383 80.278,113.833 80.467,113.833 80.421 C 113.833 80.376,113.383 80.111,112.833 79.833 C 112.283 79.556,111.833 79.366,111.833 79.412 M115.667 81.412 C 115.667 81.458,116.192 81.760,116.833 82.083 C 117.475 82.406,118.000 82.633,118.000 82.588 C 118.000 82.542,117.475 82.240,116.833 81.917 C 116.192 81.594,115.667 81.367,115.667 81.412 M282.292 82.177 C 281.581 82.540,281.000 82.875,281.000 82.921 C 281.000 82.966,281.600 82.702,282.333 82.333 C 283.067 81.965,283.667 81.626,283.667 81.581 C 283.667 81.469,283.729 81.442,282.292 82.177 M122.333 84.913 C 122.333 84.959,122.933 85.298,123.667 85.667 C 124.400 86.035,125.000 86.300,125.000 86.254 C 125.000 86.208,124.400 85.869,123.667 85.500 C 122.933 85.131,122.333 84.867,122.333 84.913 M275.958 85.510 C 275.248 85.874,274.667 86.208,274.667 86.254 C 274.667 86.300,275.267 86.035,276.000 85.667 C 276.733 85.298,277.333 84.960,277.333 84.915 C 277.333 84.803,277.396 84.776,275.958 85.510 M272.292 87.429 C 271.669 87.767,271.707 87.907,272.333 87.583 C 272.608 87.441,272.833 87.289,272.833 87.246 C 272.833 87.138,272.815 87.145,272.292 87.429 M129.000 88.412 C 129.000 88.458,129.525 88.760,130.167 89.083 C 130.808 89.406,131.333 89.633,131.333 89.588 C 131.333 89.542,130.808 89.240,130.167 88.917 C 129.525 88.594,129.000 88.367,129.000 88.412 M269.292 89.010 C 268.581 89.374,268.000 89.708,268.000 89.754 C 268.000 89.800,268.600 89.535,269.333 89.167 C 270.067 88.798,270.667 88.460,270.667 88.415 C 270.667 88.303,270.729 88.276,269.292 89.010 M135.333 91.746 C 135.333 91.792,135.933 92.131,136.667 92.500 C 137.400 92.869,138.000 93.133,138.000 93.087 C 138.000 93.041,137.400 92.702,136.667 92.333 C 135.933 91.965,135.333 91.700,135.333 91.746 M262.625 92.510 C 261.915 92.874,261.333 93.208,261.333 93.254 C 261.333 93.300,261.933 93.035,262.667 92.667 C 263.400 92.298,264.000 91.960,264.000 91.915 C 264.000 91.803,264.062 91.776,262.625 92.510 M141.333 94.952 C 142.314 95.646,143.469 96.885,144.046 97.860 C 144.387 98.437,144.667 98.829,144.667 98.730 C 144.667 98.061,142.304 95.320,141.323 94.851 L 140.917 94.657 141.333 94.952 M257.113 95.875 L 256.056 96.917 257.070 96.011 C 257.627 95.513,258.155 95.044,258.242 94.970 C 258.329 94.895,258.348 94.833,258.285 94.833 C 258.222 94.833,257.694 95.302,257.113 95.875 M255.158 98.349 C 254.967 98.725,254.839 99.061,254.874 99.096 C 254.909 99.131,255.100 98.823,255.300 98.413 C 255.754 97.478,255.631 97.423,255.158 98.349 M254.221 102.417 C 254.222 103.058,254.252 103.300,254.288 102.955 C 254.324 102.609,254.324 102.084,254.287 101.788 C 254.250 101.492,254.221 101.775,254.221 102.417 M145.381 102.417 C 145.382 102.875,145.415 103.043,145.453 102.789 C 145.491 102.536,145.490 102.161,145.451 101.956 C 145.411 101.751,145.380 101.958,145.381 102.417 M143.676 107.625 C 143.371 108.060,143.263 108.290,143.436 108.136 C 143.738 107.867,144.416 106.833,144.292 106.833 C 144.258 106.833,143.981 107.190,143.676 107.625 M255.661 107.455 C 255.760 107.659,256.233 108.228,256.712 108.720 C 257.405 109.430,257.446 109.457,256.914 108.848 C 256.546 108.428,256.073 107.858,255.863 107.583 C 255.625 107.271,255.549 107.223,255.661 107.455 M139.914 111.542 L 137.750 113.750 139.958 111.586 C 142.010 109.575,142.242 109.333,142.123 109.333 C 142.098 109.333,141.105 110.327,139.914 111.542 M261.089 112.935 C 262.283 114.117,265.171 116.912,267.505 119.147 C 269.840 121.383,270.622 122.095,269.243 120.731 C 267.863 119.366,264.976 116.571,262.826 114.519 C 260.676 112.466,259.894 111.754,261.089 112.935 M130.667 120.380 C 127.138 123.787,123.125 127.693,121.750 129.059 C 120.375 130.424,123.281 127.664,128.208 122.925 C 136.060 115.372,137.325 114.131,137.125 114.176 C 137.102 114.181,134.196 116.973,130.667 120.380 M274.083 125.500 C 275.180 126.600,276.116 127.500,276.161 127.500 C 276.207 127.500,275.347 126.600,274.250 125.500 C 273.153 124.400,272.218 123.500,272.172 123.500 C 272.126 123.500,272.986 124.400,274.083 125.500 M276.833 128.057 C 276.833 128.102,279.758 130.964,283.333 134.417 C 286.908 137.869,289.833 140.656,289.833 140.610 C 289.833 140.564,286.908 137.702,283.333 134.250 C 279.758 130.798,276.833 128.011,276.833 128.057 M117.000 133.543 C 115.854 134.665,113.846 136.625,112.536 137.898 C 111.227 139.170,110.177 140.232,110.203 140.256 C 110.229 140.281,112.275 138.324,114.750 135.907 C 117.225 133.491,119.212 131.511,119.167 131.508 C 119.121 131.506,118.146 132.421,117.000 133.543 M107.414 142.875 L 105.583 144.750 107.458 142.920 C 108.490 141.913,109.333 141.069,109.333 141.045 C 109.333 140.924,109.114 141.133,107.414 142.875 M292.583 143.333 C 293.772 144.525,294.783 145.500,294.829 145.500 C 294.874 145.500,293.939 144.525,292.750 143.333 C 291.561 142.142,290.551 141.167,290.505 141.167 C 290.459 141.167,291.394 142.142,292.583 143.333 M103.000 147.046 C 101.946 148.078,99.921 150.046,98.501 151.418 C 97.081 152.791,96.143 153.746,96.418 153.542 C 96.987 153.116,105.127 145.181,105.000 145.174 C 104.954 145.172,104.054 146.015,103.000 147.046 M295.000 145.542 C 295.000 145.587,296.968 147.527,299.374 149.853 C 301.780 152.180,303.646 153.952,303.521 153.792 C 303.201 153.382,295.000 145.442,295.000 145.542 M386.415 181.917 C 386.415 198.692,386.434 205.529,386.458 197.112 C 386.482 188.694,386.482 174.969,386.458 166.612 C 386.434 158.254,386.415 165.142,386.415 181.917 M306.167 156.417 C 307.218 157.471,308.115 158.333,308.161 158.333 C 308.207 158.333,307.385 157.471,306.333 156.417 C 305.282 155.362,304.385 154.500,304.339 154.500 C 304.293 154.500,305.115 155.362,306.167 156.417 M93.579 156.208 L 92.250 157.583 93.625 156.254 C 94.902 155.019,95.076 154.833,94.954 154.833 C 94.929 154.833,94.311 155.452,93.579 156.208 M89.414 160.208 L 87.750 161.917 89.458 160.253 C 90.398 159.338,91.167 158.569,91.167 158.545 C 91.167 158.424,90.959 158.622,89.414 160.208 M308.713 158.766 C 308.773 158.866,310.793 160.851,313.202 163.177 C 315.612 165.503,317.358 167.158,317.083 166.854 C 316.387 166.085,308.581 158.542,308.713 158.766 M84.501 164.881 C 83.081 166.276,82.293 167.103,82.751 166.720 C 83.603 166.007,87.309 162.328,87.164 162.340 C 87.120 162.343,85.921 163.487,84.501 164.881 M79.997 169.292 L 78.417 170.917 80.042 169.337 C 80.935 168.468,81.667 167.736,81.667 167.712 C 81.667 167.591,81.464 167.782,79.997 169.292 M320.083 169.833 C 321.089 170.842,321.948 171.667,321.994 171.667 C 322.040 171.667,321.255 170.842,320.250 169.833 C 319.245 168.825,318.385 168.000,318.339 168.000 C 318.293 168.000,319.078 168.825,320.083 169.833 M13.247 191.917 C 13.248 203.650,13.267 208.425,13.292 202.529 C 13.316 196.632,13.316 187.032,13.292 181.195 C 13.267 175.359,13.247 180.183,13.247 191.917 M75.500 173.544 C 74.354 174.666,72.396 176.574,71.149 177.785 C 69.902 178.996,69.002 179.915,69.149 179.829 C 69.469 179.641,77.787 171.516,77.667 171.509 C 77.621 171.506,76.646 172.422,75.500 173.544 M322.646 172.208 C 322.771 172.368,324.758 174.316,327.062 176.538 C 329.365 178.759,331.063 180.364,330.833 180.104 C 330.280 179.478,322.354 171.833,322.646 172.208 M66.330 182.458 L 64.917 183.917 66.375 182.504 C 67.729 181.191,67.909 181.000,67.788 181.000 C 67.763 181.000,67.107 181.656,66.330 182.458 M333.750 183.000 C 334.571 183.825,335.281 184.500,335.326 184.500 C 335.372 184.500,334.738 183.825,333.917 183.000 C 333.095 182.175,332.386 181.500,332.340 181.500 C 332.294 181.500,332.929 182.175,333.750 183.000 M59.572 188.882 C 57.366 191.009,55.460 192.900,55.337 193.083 C 55.214 193.267,57.038 191.549,59.390 189.267 C 63.198 185.572,63.786 184.981,63.625 185.007 C 63.602 185.010,61.778 186.754,59.572 188.882 M336.333 185.374 C 336.333 185.419,338.265 187.320,340.625 189.600 C 342.985 191.880,344.767 193.569,344.583 193.353 C 344.112 192.800,336.333 185.276,336.333 185.374 M52.663 195.625 L 51.250 197.083 52.708 195.670 C 54.063 194.358,54.243 194.167,54.121 194.167 C 54.096 194.167,53.440 194.823,52.663 195.625 M347.500 196.250 C 348.275 197.029,348.947 197.667,348.993 197.667 C 349.038 197.667,348.442 197.029,347.667 196.250 C 346.892 195.471,346.220 194.833,346.174 194.833 C 346.128 194.833,346.725 195.471,347.500 196.250 M48.164 199.958 L 46.250 201.917 48.208 200.003 C 50.027 198.225,50.242 198.000,50.122 198.000 C 50.098 198.000,49.217 198.881,48.164 199.958 M350.146 198.708 C 350.271 198.868,352.258 200.818,354.560 203.041 C 356.863 205.264,358.645 206.952,358.520 206.792 C 358.395 206.632,356.409 204.682,354.106 202.459 C 351.803 200.236,350.021 198.548,350.146 198.708 M45.896 202.048 C 45.792 202.159,44.761 203.181,43.604 204.319 C 42.447 205.457,41.500 206.428,41.500 206.478 C 41.500 206.582,46.054 202.145,46.138 201.958 C 46.220 201.776,46.111 201.816,45.896 202.048 M39.080 208.708 L 37.417 210.417 39.125 208.753 C 40.065 207.838,40.833 207.069,40.833 207.045 C 40.833 206.924,40.625 207.122,39.080 208.708 M361.167 209.417 C 361.942 210.196,362.613 210.833,362.659 210.833 C 362.705 210.833,362.108 210.196,361.333 209.417 C 360.558 208.637,359.887 208.000,359.841 208.000 C 359.795 208.000,360.392 208.637,361.167 209.417 M32.500 215.017 C 30.438 217.035,28.300 219.026,27.750 219.442 C 26.521 220.371,26.424 220.474,27.156 220.068 C 27.840 219.689,36.637 211.303,36.312 211.340 C 36.278 211.344,34.563 212.999,32.500 215.017 M364.250 212.318 C 365.624 213.795,371.968 219.804,372.351 219.991 C 372.648 220.135,372.622 220.088,372.250 219.806 C 371.975 219.598,369.912 217.667,367.667 215.514 C 365.421 213.362,363.883 211.924,364.250 212.318 M14.000 216.064 C 14.000 216.243,14.496 217.167,14.592 217.167 C 14.638 217.167,14.551 216.923,14.400 216.625 C 14.090 216.017,14.000 215.890,14.000 216.064 M14.947 217.755 C 15.420 218.425,16.834 219.739,17.344 219.982 L 17.750 220.176 17.333 219.892 C 17.104 219.736,16.393 219.078,15.754 218.429 C 15.114 217.781,14.751 217.477,14.947 217.755 M383.417 218.953 C 382.867 219.468,382.642 219.734,382.917 219.543 C 383.396 219.210,384.645 217.992,384.491 218.008 C 384.450 218.012,383.967 218.437,383.417 218.953 M21.792 221.454 C 22.090 221.491,22.577 221.491,22.875 221.454 C 23.173 221.417,22.929 221.387,22.333 221.387 C 21.738 221.387,21.494 221.417,21.792 221.454 M376.795 221.454 C 377.094 221.491,377.544 221.490,377.795 221.452 C 378.045 221.414,377.800 221.384,377.250 221.385 C 376.700 221.386,376.495 221.417,376.795 221.454 " stroke="none" fill="#2b3982" fill-rule="evenodd"></path></g></svg>