<svg id="svg" version="1.1" xmlns="http://www.w3.org/2000/svg" xmlns:xlink="http://www.w3.org/1999/xlink" width="400" height="255.87668593448942" viewBox="0, 0, 400,255.87668593448942"><g id="svgg"><path id="path0" d="M0.000 127.959 L 0.000 255.918 200.000 255.918 L 400.000 255.918 400.000 127.959 L 400.000 0.000 200.000 0.000 L 0.000 0.000 0.000 127.959 M29.886 0.909 C 29.808 0.987,28.633 1.333,27.276 1.678 C 14.406 4.943,3.889 16.093,1.279 29.239 C 1.119 30.048,0.938 30.710,0.878 30.710 C 0.817 30.710,0.768 23.973,0.768 15.739 L 0.768 0.768 15.398 0.768 C 23.444 0.768,29.964 0.832,29.886 0.909 M399.519 3.391 C 399.678 16.957,399.504 36.277,399.272 30.838 C 399.200 29.145,398.312 25.889,397.108 22.905 C 392.738 12.070,383.847 4.386,372.233 1.406 L 369.930 0.815 384.709 0.792 L 399.488 0.768 399.519 3.391 M361.247 12.713 C 364.354 13.770,366.417 17.131,366.160 20.719 C 365.920 24.075,364.557 25.670,359.811 28.151 C 358.061 29.066,355.303 30.514,353.682 31.369 C 352.062 32.225,346.763 35.005,341.907 37.549 C 337.051 40.092,332.444 42.516,331.670 42.935 C 330.896 43.354,326.692 45.570,322.329 47.860 C 317.965 50.149,313.417 52.538,312.220 53.169 C 308.396 55.184,294.546 62.446,291.235 64.172 C 289.475 65.090,287.460 66.157,286.756 66.544 C 286.052 66.931,284.267 67.879,282.790 68.651 C 271.932 74.322,263.449 78.769,261.932 79.585 C 260.947 80.115,258.932 81.182,257.454 81.956 C 246.832 87.518,239.220 91.524,238.132 92.124 C 237.428 92.512,234.894 93.839,232.502 95.072 C 230.109 96.306,227.806 97.515,227.383 97.759 C 226.961 98.003,224.658 99.212,222.265 100.446 C 219.872 101.680,217.569 102.890,217.147 103.135 C 216.724 103.380,214.882 104.359,213.052 105.310 C 211.222 106.261,208.055 107.914,206.014 108.984 L 202.303 110.928 200.237 110.934 C 197.754 110.942,200.123 112.097,169.930 96.152 C 168.874 95.595,164.383 93.238,159.949 90.916 C 155.515 88.593,151.081 86.263,150.096 85.738 C 149.111 85.213,146.923 84.061,145.234 83.179 C 143.544 82.297,141.356 81.144,140.371 80.617 C 139.386 80.090,137.083 78.879,135.253 77.925 C 132.162 76.314,129.698 75.023,124.888 72.491 C 123.832 71.936,118.305 69.033,112.604 66.041 C 106.903 63.049,101.318 60.110,100.192 59.508 C 99.066 58.907,96.763 57.693,95.074 56.810 C 90.726 54.536,77.853 47.771,75.112 46.318 C 73.845 45.647,68.145 42.652,62.444 39.663 C 56.743 36.673,51.388 33.855,50.544 33.399 C 49.699 32.944,47.511 31.793,45.681 30.841 C 37.991 26.841,37.178 26.359,36.004 25.105 C 32.307 21.152,34.079 14.528,39.335 12.653 C 40.991 12.063,359.509 12.122,361.247 12.713 M24.970 34.414 C 25.664 34.621,29.226 36.360,32.885 38.278 C 36.545 40.196,40.864 42.459,42.482 43.307 C 44.101 44.156,46.347 45.339,47.473 45.938 C 48.599 46.537,53.205 48.957,57.710 51.315 C 62.214 53.674,66.705 56.032,67.690 56.556 C 71.279 58.464,74.457 60.137,79.846 62.954 C 82.873 64.536,86.385 66.378,87.652 67.047 C 88.919 67.717,91.280 68.956,92.898 69.800 C 94.517 70.644,96.878 71.882,98.145 72.552 C 100.864 73.989,103.946 75.610,107.997 77.733 C 109.616 78.581,113.301 80.519,116.187 82.040 C 123.571 85.932,126.369 87.396,134.498 91.619 C 144.364 96.744,145.481 97.901,145.486 103.007 C 145.489 105.370,145.431 105.674,144.722 106.974 C 143.849 108.573,143.906 108.514,134.224 117.834 C 130.286 121.625,125.451 126.289,123.480 128.199 C 115.657 135.778,104.734 146.310,80.742 169.410 C 66.948 182.691,54.001 195.179,51.971 197.162 C 49.940 199.145,47.797 201.228,47.208 201.791 C 46.620 202.354,43.329 205.525,39.896 208.836 C 26.267 221.981,26.995 221.416,23.490 221.584 C 18.816 221.808,14.957 218.903,14.122 214.532 C 13.642 212.019,13.504 42.570,13.980 40.715 C 15.196 35.983,20.341 33.033,24.970 34.414 M381.104 34.903 C 382.830 35.720,384.563 37.389,385.413 39.054 L 386.052 40.307 386.118 126.552 C 386.161 184.048,386.096 213.265,385.923 214.203 C 385.077 218.792,381.810 221.489,377.095 221.494 C 372.994 221.499,373.903 222.170,360.462 209.223 C 356.803 205.699,352.196 201.252,350.225 199.341 C 348.254 197.430,341.516 190.928,335.253 184.892 C 320.040 170.233,310.827 161.346,306.334 156.999 C 304.293 155.024,301.011 151.860,299.040 149.967 C 297.070 148.074,293.612 144.738,291.356 142.553 C 289.101 140.368,284.439 135.873,280.996 132.566 C 277.553 129.258,274.214 126.033,273.576 125.400 C 272.938 124.766,269.311 121.254,265.516 117.594 C 255.585 108.018,255.973 108.428,255.109 106.583 C 254.395 105.056,254.339 104.739,254.421 102.684 C 254.597 98.289,256.107 96.528,262.596 93.154 C 264.897 91.958,268.107 90.280,269.730 89.426 C 271.353 88.572,276.366 85.939,280.870 83.574 C 285.374 81.210,291.190 78.153,293.794 76.780 C 296.398 75.407,299.795 73.623,301.344 72.814 C 302.892 72.005,304.965 70.910,305.950 70.382 C 306.935 69.853,309.296 68.612,311.196 67.624 C 314.566 65.871,327.192 59.247,331.798 56.815 C 333.065 56.146,336.404 54.389,339.219 52.911 C 344.458 50.160,348.390 48.094,352.015 46.189 C 353.141 45.597,356.539 43.817,359.565 42.235 C 362.591 40.652,365.988 38.866,367.115 38.266 C 375.867 33.601,377.515 33.205,381.104 34.903 M169.108 109.502 C 169.852 109.801,172.904 111.385,175.889 113.024 C 178.875 114.662,182.009 116.372,182.853 116.823 C 183.698 117.275,186.201 118.637,188.415 119.851 C 197.426 124.789,202.529 124.917,210.877 120.413 C 218.424 116.341,220.824 115.039,223.033 113.816 C 224.299 113.115,225.969 112.194,226.743 111.769 C 227.518 111.345,228.631 110.733,229.218 110.410 C 233.144 108.247,238.169 108.289,241.722 110.514 C 243.196 111.436,257.431 125.395,302.053 169.674 C 307.514 175.093,313.577 181.081,315.526 182.981 C 317.476 184.882,327.908 195.189,338.708 205.886 C 349.509 216.583,359.876 226.833,361.745 228.663 C 365.588 232.424,366.234 233.438,366.418 235.993 C 366.670 239.509,364.715 242.731,361.728 243.724 C 359.555 244.445,39.475 244.240,38.015 243.516 C 35.397 242.218,33.947 239.754,33.940 236.591 C 33.932 233.278,33.773 233.480,45.503 221.856 C 68.354 199.213,95.650 172.210,98.356 169.573 C 99.929 168.039,106.348 161.706,112.621 155.497 C 157.417 111.163,157.529 111.054,159.080 110.233 C 162.058 108.656,166.239 108.351,169.108 109.502 M399.598 242.994 L 399.573 254.766 384.894 254.833 C 375.281 254.876,370.126 254.810,369.957 254.641 C 369.784 254.467,369.947 254.381,370.454 254.378 C 375.198 254.351,384.600 249.383,389.635 244.245 C 394.658 239.119,399.019 230.330,399.272 224.824 C 399.417 221.648,399.619 232.891,399.598 242.994 M1.419 226.979 C 3.886 239.982,17.248 253.065,29.337 254.312 C 33.290 254.720,29.225 254.894,15.739 254.894 L 0.768 254.894 0.768 239.753 C 0.768 231.425,0.824 224.667,0.892 224.735 C 0.961 224.804,1.198 225.813,1.419 226.979 " stroke="none" fill="#6c346c" fill-rule="evenodd"></path><path id="path1" d="M19.778 34.536 C 16.908 35.569,14.697 37.925,13.980 40.715 C 13.504 42.570,13.642 212.019,14.122 214.532 C 14.957 218.903,18.816 221.808,23.490 221.584 C 26.995 221.416,26.267 221.981,39.896 208.836 C 43.329 205.525,46.620 202.354,47.208 201.791 C 47.797 201.228,49.940 199.145,51.971 197.162 C 54.001 195.179,66.948 182.691,80.742 169.410 C 104.734 146.310,115.657 135.778,123.480 128.199 C 125.451 126.289,130.286 121.625,134.224 117.834 C 143.906 108.514,143.849 108.573,144.722 106.974 C 145.431 105.674,145.489 105.370,145.486 103.007 C 145.481 97.901,144.364 96.744,134.498 91.619 C 126.369 87.396,123.571 85.932,116.187 82.040 C 113.301 80.519,109.616 78.581,107.997 77.733 C 103.946 75.610,100.864 73.989,98.145 72.552 C 96.878 71.882,94.517 70.644,92.898 69.800 C 91.280 68.956,88.919 67.717,87.652 67.047 C 86.385 66.378,82.873 64.536,79.846 62.954 C 74.457 60.137,71.279 58.464,67.690 56.556 C 66.705 56.032,62.214 53.674,57.710 51.315 C 53.205 48.957,48.599 46.537,47.473 45.938 C 46.347 45.339,44.101 44.156,42.482 43.307 C 40.864 42.459,36.545 40.196,32.885 38.278 C 24.319 33.788,22.946 33.396,19.778 34.536 M375.120 34.274 C 374.405 34.507,370.730 36.339,367.115 38.266 C 365.988 38.866,362.591 40.652,359.565 42.235 C 356.539 43.817,353.141 45.597,352.015 46.189 C 348.390 48.094,344.458 50.160,339.219 52.911 C 336.404 54.389,333.065 56.146,331.798 56.815 C 327.192 59.247,314.566 65.871,311.196 67.624 C 309.296 68.612,306.935 69.853,305.950 70.382 C 304.965 70.910,302.892 72.005,301.344 72.814 C 299.795 73.623,296.398 75.407,293.794 76.780 C 291.190 78.153,285.374 81.210,280.870 83.574 C 276.366 85.939,271.353 88.572,269.730 89.426 C 268.107 90.280,264.897 91.958,262.596 93.154 C 256.107 96.528,254.597 98.289,254.421 102.684 C 254.339 104.739,254.395 105.056,255.109 106.583 C 255.973 108.428,255.585 108.018,265.516 117.594 C 269.311 121.254,272.938 124.766,273.576 125.400 C 274.214 126.033,277.553 129.258,280.996 132.566 C 284.439 135.873,289.101 140.368,291.356 142.553 C 293.612 144.738,297.070 148.074,299.040 149.967 C 301.011 151.860,304.293 155.024,306.334 156.999 C 310.827 161.346,320.040 170.233,335.253 184.892 C 341.516 190.928,348.254 197.430,350.225 199.341 C 352.196 201.252,356.803 205.699,360.462 209.223 C 373.903 222.170,372.994 221.499,377.095 221.494 C 381.810 221.489,385.077 218.792,385.923 214.203 C 386.096 213.265,386.161 184.048,386.118 126.552 L 386.052 40.307 385.413 39.054 C 383.585 35.474,378.579 33.149,375.120 34.274 " stroke="none" fill="#043c94" fill-rule="evenodd"></path><path id="path2" d="M0.768 15.739 C 0.768 23.973,0.817 30.710,0.878 30.710 C 0.938 30.710,1.119 30.048,1.279 29.239 C 3.889 16.093,14.406 4.943,27.276 1.678 C 28.633 1.333,29.808 0.987,29.886 0.909 C 29.964 0.832,23.444 0.768,15.398 0.768 L 0.768 0.768 0.768 15.739 M372.233 1.406 C 383.847 4.386,392.738 12.070,397.108 22.905 C 398.312 25.889,399.200 29.145,399.272 30.838 C 399.504 36.277,399.678 16.957,399.519 3.391 L 399.488 0.768 384.709 0.792 L 369.930 0.815 372.233 1.406 M39.335 12.653 C 34.079 14.528,32.307 21.152,36.004 25.105 C 37.178 26.359,37.991 26.841,45.681 30.841 C 47.511 31.793,49.699 32.944,50.544 33.399 C 51.388 33.855,56.743 36.673,62.444 39.663 C 68.145 42.652,73.845 45.647,75.112 46.318 C 77.853 47.771,90.726 54.536,95.074 56.810 C 96.763 57.693,99.066 58.907,100.192 59.508 C 101.318 60.110,106.903 63.049,112.604 66.041 C 118.305 69.033,123.832 71.936,124.888 72.491 C 129.698 75.023,132.162 76.314,135.253 77.925 C 137.083 78.879,139.386 80.090,140.371 80.617 C 141.356 81.144,143.544 82.297,145.234 83.179 C 146.923 84.061,149.111 85.213,150.096 85.738 C 151.081 86.263,155.515 88.593,159.949 90.916 C 164.383 93.238,168.874 95.595,169.930 96.152 C 200.123 112.097,197.754 110.942,200.237 110.934 L 202.303 110.928 206.014 108.984 C 208.055 107.914,211.222 106.261,213.052 105.310 C 214.882 104.359,216.724 103.380,217.147 103.135 C 217.569 102.890,219.872 101.680,222.265 100.446 C 224.658 99.212,226.961 98.003,227.383 97.759 C 227.806 97.515,230.109 96.306,232.502 95.072 C 234.894 93.839,237.428 92.512,238.132 92.124 C 239.220 91.524,246.832 87.518,257.454 81.956 C 258.932 81.182,260.947 80.115,261.932 79.585 C 263.449 78.769,271.932 74.322,282.790 68.651 C 284.267 67.879,286.052 66.931,286.756 66.544 C 287.460 66.157,289.475 65.090,291.235 64.172 C 294.546 62.446,308.396 55.184,312.220 53.169 C 313.417 52.538,317.965 50.149,322.329 47.860 C 326.692 45.570,330.896 43.354,331.670 42.935 C 332.444 42.516,337.051 40.092,341.907 37.549 C 346.763 35.005,352.062 32.225,353.682 31.369 C 355.303 30.514,358.061 29.066,359.811 28.151 C 364.557 25.670,365.920 24.075,366.160 20.719 C 366.417 17.131,364.354 13.770,361.247 12.713 C 359.509 12.122,40.991 12.063,39.335 12.653 M161.767 109.154 C 161.008 109.367,159.798 109.853,159.080 110.233 C 157.529 111.054,157.417 111.163,112.621 155.497 C 106.348 161.706,99.929 168.039,98.356 169.573 C 95.650 172.210,68.354 199.213,45.503 221.856 C 33.773 233.480,33.932 233.278,33.940 236.591 C 33.947 239.754,35.397 242.218,38.015 243.516 C 39.475 244.240,359.555 244.445,361.728 243.724 C 364.715 242.731,366.670 239.509,366.418 235.993 C 366.234 233.438,365.588 232.424,361.745 228.663 C 359.876 226.833,349.509 216.583,338.708 205.886 C 327.908 195.189,317.476 184.882,315.526 182.981 C 313.577 181.081,307.514 175.093,302.053 169.674 C 257.431 125.395,243.196 111.436,241.722 110.514 C 238.169 108.289,233.144 108.247,229.218 110.410 C 228.631 110.733,227.518 111.345,226.743 111.769 C 225.969 112.194,224.299 113.115,223.033 113.816 C 220.824 115.039,218.424 116.341,210.877 120.413 C 202.529 124.917,197.426 124.789,188.415 119.851 C 186.201 118.637,183.698 117.275,182.853 116.823 C 182.009 116.372,178.875 114.662,175.889 113.024 C 168.032 108.712,165.658 108.062,161.767 109.154 M399.272 224.824 C 399.019 230.330,394.658 239.119,389.635 244.245 C 384.600 249.383,375.198 254.351,370.454 254.378 C 369.947 254.381,369.784 254.467,369.957 254.641 C 370.126 254.810,375.281 254.876,384.894 254.833 L 399.573 254.766 399.598 242.994 C 399.619 232.891,399.417 221.648,399.272 224.824 M0.768 239.753 L 0.768 254.894 15.739 254.894 C 29.225 254.894,33.290 254.720,29.337 254.312 C 17.248 253.065,3.886 239.982,1.419 226.979 C 1.198 225.813,0.961 224.804,0.892 224.735 C 0.824 224.667,0.768 231.425,0.768 239.753 " stroke="none" fill="#e4f3e4" fill-rule="evenodd"></path></g></svg>